<svg width="528" height="290" viewBox="0 0 528 290" fill="none" xmlns="http://www.w3.org/2000/svg">
<path d="M11.71 138.457C11.71 109.79 17.21 87.207 28.21 70.707C39.3766 54.207 57.2933 45.957 81.96 45.957C106.627 45.957 124.46 54.207 135.46 70.707C146.627 87.207 152.21 109.79 152.21 138.457C152.21 167.457 146.627 190.207 135.46 206.707C124.46 223.207 106.627 231.457 81.96 231.457C57.2933 231.457 39.3766 223.207 28.21 206.707C17.21 190.207 11.71 167.457 11.71 138.457ZM110.21 138.457C110.21 121.624 108.377 108.707 104.71 99.707C101.043 90.5404 93.46 85.957 81.96 85.957C70.46 85.957 62.8766 90.5404 59.21 99.707C55.5433 108.707 53.71 121.624 53.71 138.457C53.71 149.79 54.3766 159.207 55.71 166.707C57.0433 174.04 59.71 180.04 63.71 184.707C67.8766 189.207 73.96 191.457 81.96 191.457C89.96 191.457 95.96 189.207 99.96 184.707C104.127 180.04 106.877 174.04 108.21 166.707C109.543 159.207 110.21 149.79 110.21 138.457ZM170.296 89.457V49.707H239.546V232.207H195.046V89.457H170.296Z" fill="#FF9900"/>
<path d="M203.113 173.767C199.219 173.767 195.699 173.1 192.553 171.767C189.459 170.434 187.006 168.514 185.193 166.007C183.379 163.5 182.446 160.54 182.393 157.127H194.393C194.553 159.42 195.353 161.234 196.793 162.567C198.286 163.9 200.313 164.567 202.873 164.567C205.486 164.567 207.539 163.954 209.033 162.727C210.526 161.447 211.273 159.794 211.273 157.767C211.273 156.114 210.766 154.754 209.753 153.687C208.739 152.62 207.459 151.794 205.913 151.207C204.419 150.567 202.339 149.874 199.673 149.127C196.046 148.06 193.086 147.02 190.793 146.007C188.553 144.94 186.606 143.367 184.953 141.287C183.353 139.154 182.553 136.327 182.553 132.807C182.553 129.5 183.379 126.62 185.033 124.167C186.686 121.714 189.006 119.847 191.993 118.567C194.979 117.234 198.393 116.567 202.233 116.567C207.993 116.567 212.659 117.98 216.233 120.807C219.859 123.58 221.859 127.474 222.233 132.487H209.913C209.806 130.567 208.979 128.994 207.433 127.767C205.939 126.487 203.939 125.847 201.433 125.847C199.246 125.847 197.486 126.407 196.153 127.527C194.873 128.647 194.233 130.274 194.233 132.407C194.233 133.9 194.713 135.154 195.673 136.167C196.686 137.127 197.913 137.927 199.353 138.567C200.846 139.154 202.926 139.847 205.593 140.647C209.219 141.714 212.179 142.78 214.473 143.847C216.766 144.914 218.739 146.514 220.393 148.647C222.046 150.78 222.873 153.58 222.873 157.047C222.873 160.034 222.099 162.807 220.552 165.367C219.006 167.927 216.739 169.98 213.753 171.527C210.766 173.02 207.219 173.767 203.113 173.767ZM245.623 138.087V159.527C245.623 161.02 245.969 162.114 246.663 162.807C247.409 163.447 248.636 163.767 250.343 163.767H255.543V173.207H248.503C239.063 173.207 234.343 168.62 234.343 159.447V138.087H229.063V128.887H234.343V117.927H245.623V128.887H255.543V138.087H245.623ZM274.798 135.767C276.238 133.42 278.105 131.58 280.398 130.247C282.745 128.914 285.411 128.247 288.398 128.247V140.007H285.438C281.918 140.007 279.251 140.834 277.438 142.487C275.678 144.14 274.798 147.02 274.798 151.127V173.207H263.598V128.887H274.798V135.767ZM293.062 150.887C293.062 146.407 293.942 142.434 295.702 138.967C297.515 135.5 299.942 132.834 302.982 130.967C306.075 129.1 309.515 128.167 313.302 128.167C316.609 128.167 319.489 128.834 321.942 130.167C324.449 131.5 326.449 133.18 327.942 135.207V128.887H339.222V173.207H327.942V166.727C326.502 168.807 324.502 170.54 321.942 171.927C319.435 173.26 316.529 173.927 313.222 173.927C309.489 173.927 306.075 172.967 302.982 171.047C299.942 169.127 297.515 166.434 295.702 162.967C293.942 159.447 293.062 155.42 293.062 150.887ZM327.942 151.047C327.942 148.327 327.409 146.007 326.342 144.087C325.275 142.114 323.835 140.62 322.022 139.607C320.209 138.54 318.262 138.007 316.182 138.007C314.102 138.007 312.182 138.514 310.422 139.527C308.662 140.54 307.222 142.034 306.102 144.007C305.035 145.927 304.502 148.22 304.502 150.887C304.502 153.554 305.035 155.9 306.102 157.927C307.222 159.9 308.662 161.42 310.422 162.487C312.235 163.554 314.155 164.087 316.182 164.087C318.262 164.087 320.209 163.58 322.022 162.567C323.835 161.5 325.275 160.007 326.342 158.087C327.409 156.114 327.942 153.767 327.942 151.047ZM363.201 138.087V159.527C363.201 161.02 363.547 162.114 364.241 162.807C364.987 163.447 366.214 163.767 367.921 163.767H373.121V173.207H366.081C356.641 173.207 351.921 168.62 351.921 159.447V138.087H346.641V128.887H351.921V117.927H363.201V128.887H373.121V138.087H363.201ZM422.376 150.087C422.376 151.687 422.27 153.127 422.056 154.407H389.656C389.923 157.607 391.043 160.114 393.016 161.927C394.99 163.74 397.416 164.647 400.296 164.647C404.456 164.647 407.416 162.86 409.176 159.287H421.256C419.976 163.554 417.523 167.074 413.896 169.847C410.27 172.567 405.816 173.927 400.536 173.927C396.27 173.927 392.43 172.994 389.016 171.127C385.656 169.207 383.016 166.514 381.096 163.047C379.23 159.58 378.296 155.58 378.296 151.047C378.296 146.46 379.23 142.434 381.096 138.967C382.963 135.5 385.576 132.834 388.936 130.967C392.296 129.1 396.163 128.167 400.536 128.167C404.75 128.167 408.51 129.074 411.816 130.887C415.176 132.7 417.763 135.287 419.576 138.647C421.443 141.954 422.376 145.767 422.376 150.087ZM410.776 146.887C410.723 144.007 409.683 141.714 407.656 140.007C405.63 138.247 403.15 137.367 400.216 137.367C397.443 137.367 395.096 138.22 393.176 139.927C391.31 141.58 390.163 143.9 389.736 146.887H410.776ZM447.911 128.167C451.218 128.167 454.125 128.834 456.631 130.167C459.138 131.447 461.111 133.127 462.551 135.207V128.887H473.831V173.527C473.831 177.634 473.005 181.287 471.351 184.487C469.698 187.74 467.218 190.3 463.911 192.167C460.605 194.087 456.605 195.047 451.911 195.047C445.618 195.047 440.445 193.58 436.391 190.647C432.391 187.714 430.125 183.714 429.591 178.647H440.711C441.298 180.674 442.551 182.274 444.471 183.447C446.445 184.674 448.818 185.287 451.591 185.287C454.845 185.287 457.485 184.3 459.511 182.327C461.538 180.407 462.551 177.474 462.551 173.527V166.647C461.111 168.727 459.111 170.46 456.551 171.847C454.045 173.234 451.165 173.927 447.911 173.927C444.178 173.927 440.765 172.967 437.671 171.047C434.578 169.127 432.125 166.434 430.311 162.967C428.551 159.447 427.671 155.42 427.671 150.887C427.671 146.407 428.551 142.434 430.311 138.967C432.125 135.5 434.551 132.834 437.591 130.967C440.685 129.1 444.125 128.167 447.911 128.167ZM462.551 151.047C462.551 148.327 462.018 146.007 460.951 144.087C459.885 142.114 458.445 140.62 456.631 139.607C454.818 138.54 452.871 138.007 450.791 138.007C448.711 138.007 446.791 138.514 445.031 139.527C443.271 140.54 441.831 142.034 440.711 144.007C439.645 145.927 439.111 148.22 439.111 150.887C439.111 153.554 439.645 155.9 440.711 157.927C441.831 159.9 443.271 161.42 445.031 162.487C446.845 163.554 448.765 164.087 450.791 164.087C452.871 164.087 454.818 163.58 456.631 162.567C458.445 161.5 459.885 160.007 460.951 158.087C462.018 156.114 462.551 153.767 462.551 151.047ZM527.17 128.887L499.73 194.167H487.81L497.41 172.087L479.65 128.887H492.21L503.65 159.847L515.25 128.887H527.17Z" fill="white"/>
</svg>
