<svg width="521" height="290" viewBox="0 0 521 290" fill="none" xmlns="http://www.w3.org/2000/svg">
<path d="M243.546 138.457C243.546 109.79 249.046 87.207 260.046 70.707C271.213 54.207 289.129 45.957 313.796 45.957C338.463 45.957 356.296 54.207 367.296 70.707C378.463 87.207 384.046 109.79 384.046 138.457C384.046 167.457 378.463 190.207 367.296 206.707C356.296 223.207 338.463 231.457 313.796 231.457C289.129 231.457 271.213 223.207 260.046 206.707C249.046 190.207 243.546 167.457 243.546 138.457ZM342.046 138.457C342.046 121.624 340.213 108.707 336.546 99.707C332.879 90.5404 325.296 85.957 313.796 85.957C302.296 85.957 294.713 90.5404 291.046 99.707C287.379 108.707 285.546 121.624 285.546 138.457C285.546 149.79 286.213 159.207 287.546 166.707C288.879 174.04 291.546 180.04 295.546 184.707C299.713 189.207 305.796 191.457 313.796 191.457C321.796 191.457 327.796 189.207 331.796 184.707C335.963 180.04 338.713 174.04 340.046 166.707C341.379 159.207 342.046 149.79 342.046 138.457ZM387.632 197.957C393.299 193.457 395.882 191.374 395.382 191.707C411.715 178.207 424.549 167.124 433.882 158.457C443.382 149.79 451.382 140.707 457.882 131.207C464.382 121.707 467.632 112.457 467.632 103.457C467.632 96.6237 466.049 91.2904 462.882 87.457C459.715 83.6237 454.965 81.707 448.632 81.707C442.299 81.707 437.299 84.1237 433.632 88.957C430.132 93.6237 428.382 100.29 428.382 108.957H387.132C387.465 94.7904 390.465 82.957 396.132 73.457C401.965 63.957 409.549 56.957 418.882 52.457C428.382 47.957 438.882 45.707 450.382 45.707C470.215 45.707 485.132 50.7904 495.132 60.957C505.299 71.1237 510.382 84.3737 510.382 100.707C510.382 118.54 504.299 135.124 492.132 150.457C479.965 165.624 464.465 180.457 445.632 194.957H513.132V229.707H387.632V197.957Z" fill="#FF00E5"/>
<path d="M25.1963 117.367C31.0629 117.367 36.2096 118.514 40.6363 120.807C45.1163 123.1 48.5563 126.38 50.9563 130.647C53.4096 134.86 54.6363 139.767 54.6363 145.367C54.6363 150.967 53.4096 155.874 50.9563 160.087C48.5563 164.247 45.1163 167.474 40.6363 169.767C36.2096 172.06 31.0629 173.207 25.1963 173.207H5.67625V117.367H25.1963ZM24.7963 163.687C30.6629 163.687 35.1963 162.087 38.3963 158.887C41.5963 155.687 43.1963 151.18 43.1963 145.367C43.1963 139.554 41.5963 135.02 38.3963 131.767C35.1963 128.46 30.6629 126.807 24.7963 126.807H16.8763V163.687H24.7963ZM104.22 150.087C104.22 151.687 104.113 153.127 103.9 154.407H71.5C71.7667 157.607 72.8867 160.114 74.86 161.927C76.8333 163.74 79.26 164.647 82.14 164.647C86.3 164.647 89.26 162.86 91.02 159.287H103.1C101.82 163.554 99.3667 167.074 95.74 169.847C92.1133 172.567 87.66 173.927 82.38 173.927C78.1133 173.927 74.2733 172.994 70.86 171.127C67.5 169.207 64.86 166.514 62.94 163.047C61.0733 159.58 60.14 155.58 60.14 151.047C60.14 146.46 61.0733 142.434 62.94 138.967C64.8067 135.5 67.42 132.834 70.78 130.967C74.14 129.1 78.0067 128.167 82.38 128.167C86.5933 128.167 90.3533 129.074 93.66 130.887C97.02 132.7 99.6067 135.287 101.42 138.647C103.287 141.954 104.22 145.767 104.22 150.087ZM92.62 146.887C92.5667 144.007 91.5267 141.714 89.5 140.007C87.4733 138.247 84.9933 137.367 82.06 137.367C79.2867 137.367 76.94 138.22 75.02 139.927C73.1533 141.58 72.0067 143.9 71.58 146.887H92.62ZM129.355 173.927C125.728 173.927 122.475 173.287 119.595 172.007C116.715 170.674 114.422 168.887 112.715 166.647C111.062 164.407 110.155 161.927 109.995 159.207H121.275C121.488 160.914 122.315 162.327 123.755 163.447C125.248 164.567 127.088 165.127 129.275 165.127C131.408 165.127 133.062 164.7 134.235 163.847C135.462 162.994 136.075 161.9 136.075 160.567C136.075 159.127 135.328 158.06 133.835 157.367C132.395 156.62 130.075 155.82 126.875 154.967C123.568 154.167 120.848 153.34 118.715 152.487C116.635 151.634 114.822 150.327 113.275 148.567C111.782 146.807 111.035 144.434 111.035 141.447C111.035 138.994 111.728 136.754 113.115 134.727C114.555 132.7 116.582 131.1 119.195 129.927C121.862 128.754 124.982 128.167 128.555 128.167C133.835 128.167 138.048 129.5 141.195 132.167C144.342 134.78 146.075 138.327 146.395 142.807H135.675C135.515 141.047 134.768 139.66 133.435 138.647C132.155 137.58 130.422 137.047 128.235 137.047C126.208 137.047 124.635 137.42 123.515 138.167C122.448 138.914 121.915 139.954 121.915 141.287C121.915 142.78 122.662 143.927 124.155 144.727C125.648 145.474 127.968 146.247 131.115 147.047C134.315 147.847 136.955 148.674 139.035 149.527C141.115 150.38 142.902 151.714 144.395 153.527C145.942 155.287 146.742 157.634 146.795 160.567C146.795 163.127 146.075 165.42 144.635 167.447C143.248 169.474 141.222 171.074 138.555 172.247C135.942 173.367 132.875 173.927 129.355 173.927ZM161.669 123.607C159.695 123.607 158.042 122.994 156.709 121.767C155.429 120.487 154.789 118.914 154.789 117.047C154.789 115.18 155.429 113.634 156.709 112.407C158.042 111.127 159.695 110.487 161.669 110.487C163.642 110.487 165.269 111.127 166.549 112.407C167.882 113.634 168.549 115.18 168.549 117.047C168.549 118.914 167.882 120.487 166.549 121.767C165.269 122.994 163.642 123.607 161.669 123.607ZM167.189 128.887V173.207H155.989V128.887H167.189ZM195.614 128.167C198.921 128.167 201.828 128.834 204.334 130.167C206.841 131.447 208.814 133.127 210.254 135.207V128.887H221.534V173.527C221.534 177.634 220.708 181.287 219.054 184.487C217.401 187.74 214.921 190.3 211.614 192.167C208.308 194.087 204.308 195.047 199.614 195.047C193.321 195.047 188.148 193.58 184.094 190.647C180.094 187.714 177.828 183.714 177.294 178.647H188.414C189.001 180.674 190.254 182.274 192.174 183.447C194.148 184.674 196.521 185.287 199.294 185.287C202.548 185.287 205.188 184.3 207.214 182.327C209.241 180.407 210.254 177.474 210.254 173.527V166.647C208.814 168.727 206.814 170.46 204.254 171.847C201.748 173.234 198.868 173.927 195.614 173.927C191.881 173.927 188.468 172.967 185.374 171.047C182.281 169.127 179.828 166.434 178.014 162.967C176.254 159.447 175.374 155.42 175.374 150.887C175.374 146.407 176.254 142.434 178.014 138.967C179.828 135.5 182.254 132.834 185.294 130.967C188.388 129.1 191.828 128.167 195.614 128.167ZM210.254 151.047C210.254 148.327 209.721 146.007 208.654 144.087C207.588 142.114 206.148 140.62 204.334 139.607C202.521 138.54 200.574 138.007 198.494 138.007C196.414 138.007 194.494 138.514 192.734 139.527C190.974 140.54 189.534 142.034 188.414 144.007C187.348 145.927 186.814 148.22 186.814 150.887C186.814 153.554 187.348 155.9 188.414 157.927C189.534 159.9 190.974 161.42 192.734 162.487C194.548 163.554 196.468 164.087 198.494 164.087C200.574 164.087 202.521 163.58 204.334 162.567C206.148 161.5 207.588 160.007 208.654 158.087C209.721 156.114 210.254 153.767 210.254 151.047ZM257.033 128.247C262.313 128.247 266.58 129.927 269.833 133.287C273.086 136.594 274.713 141.234 274.713 147.207V173.207H263.513V148.727C263.513 145.207 262.633 142.514 260.873 140.647C259.113 138.727 256.713 137.767 253.673 137.767C250.58 137.767 248.126 138.727 246.313 140.647C244.553 142.514 243.673 145.207 243.673 148.727V173.207H232.473V128.887H243.673V134.407C245.166 132.487 247.06 130.994 249.353 129.927C251.7 128.807 254.26 128.247 257.033 128.247Z" fill="white"/>
</svg>
