<svg width="54" height="76" viewBox="0 0 54 76" fill="none" xmlns="http://www.w3.org/2000/svg">
<path fill-rule="evenodd" clip-rule="evenodd" d="M0.75 26.75C0.75 12.2525 12.5025 0.5 27 0.5C41.4975 0.5 53.25 12.2525 53.25 26.75V49.25C53.25 63.7475 41.4975 75.5 27 75.5C12.5025 75.5 0.75 63.7475 0.75 49.25V26.75ZM27 8C16.6447 8 8.25 16.3947 8.25 26.75V49.25C8.25 59.6053 16.6447 68 27 68C37.3552 68 45.75 59.6053 45.75 49.25V26.75C45.75 16.3947 37.3552 8 27 8ZM27 19.25C29.0711 19.25 30.75 20.9289 30.75 23V34.25C30.75 36.3211 29.0711 38 27 38C24.9289 38 23.25 36.3211 23.25 34.25V23C23.25 20.9289 24.9289 19.25 27 19.25Z" fill="white"/>
</svg>
