<svg width="140" height="140" viewBox="0 0 140 140" fill="none" xmlns="http://www.w3.org/2000/svg">
<circle cx="70" cy="70" r="67" stroke="#D9D9D9" stroke-width="6"/>
<circle cx="70" cy="70" r="60" fill="#D9D9D9"/>
<path d="M103.826 36.194C101.122 33.5078 97.4643 32 93.6515 32C89.8386 32 86.1808 33.5078 83.4774 36.194L43.8158 75.8752L33.6992 96.6634C33.1792 97.7582 32.9428 98.9659 33.0117 100.176C33.0805 101.386 33.4524 102.559 34.0932 103.588C34.734 104.617 35.6232 105.468 36.6792 106.064C37.7352 106.661 38.9242 106.982 40.137 107C41.2346 107 42.3169 106.744 43.2985 106.253L64.1064 96.1465L98.5948 61.6911L103.366 56.9821L103.711 56.6376C106.436 53.9398 107.978 50.2722 108 46.4396C108.021 42.6069 106.52 38.9222 103.826 36.194ZM98.7098 41.3049C99.3789 41.9717 99.9098 42.7638 100.272 43.6359C100.634 44.508 100.821 45.4429 100.821 46.3871C100.821 47.3313 100.634 48.2662 100.272 49.1383C99.9098 50.0104 99.3789 50.8025 98.7098 51.4693L88.5357 41.3049C89.8423 39.9785 91.6166 39.2159 93.479 39.1802C94.4507 39.1528 95.4174 39.3276 96.3179 39.6933C97.2184 40.0591 98.0329 40.6079 98.7098 41.3049ZM40.1945 99.7644L49.1615 80.9861L58.9907 90.8059L40.1945 99.7644ZM64.1064 85.9822L53.9899 75.8752L83.4774 46.5307L93.479 56.5227L64.1064 85.9822Z" fill="#5041F8"/>
</svg>
